<svg width="79" height="79" viewBox="0 0 79 79" fill="none" xmlns="http://www.w3.org/2000/svg">
<path d="M52.6667 69.125V16.4583C52.6667 14.7123 51.9731 13.0378 50.7385 11.8032C49.5038 10.5686 47.8294 9.875 46.0833 9.875H32.9167C31.1707 9.875 29.4962 10.5686 28.2616 11.8032C27.0269 13.0378 26.3333 14.7123 26.3333 16.4583V69.125M13.1667 23.0417H65.8333C69.4692 23.0417 72.4167 25.9891 72.4167 29.625V62.5417C72.4167 66.1775 69.4692 69.125 65.8333 69.125H13.1667C9.5308 69.125 6.58334 66.1775 6.58334 62.5417V29.625C6.58334 25.9891 9.5308 23.0417 13.1667 23.0417Z" stroke="#1E1E1E" stroke-width="4" stroke-linecap="round" stroke-linejoin="round"/>
</svg>
