<svg width="81" height="82" viewBox="0 0 81 82" fill="none" xmlns="http://www.w3.org/2000/svg">
<path d="M54 71.75V17.0833C54 15.271 53.2888 13.5329 52.023 12.2514C50.7571 10.9699 49.0402 10.25 47.25 10.25H33.75C31.9598 10.25 30.2429 10.9699 28.977 12.2514C27.7112 13.5329 27 15.271 27 17.0833V71.75M13.5 23.9167H67.5C71.2279 23.9167 74.25 26.9761 74.25 30.75V64.9167C74.25 68.6906 71.2279 71.75 67.5 71.75H13.5C9.77208 71.75 6.75 68.6906 6.75 64.9167V30.75C6.75 26.9761 9.77208 23.9167 13.5 23.9167Z" stroke="#1E1E1E" stroke-width="4" stroke-linecap="round" stroke-linejoin="round"/>
</svg>
