<svg width="86" height="82" viewBox="0 0 86 82" fill="none" xmlns="http://www.w3.org/2000/svg">
<path d="M74.6767 15.7508C72.8464 14.0049 70.6734 12.62 68.2817 11.675C65.8899 10.7301 63.3264 10.2438 60.7375 10.2438C58.1486 10.2438 55.585 10.7301 53.1933 11.675C50.8016 12.62 48.6285 14.0049 46.7983 15.7508L43 19.3725L39.2017 15.7508C35.5048 12.2259 30.4907 10.2456 25.2625 10.2456C20.0343 10.2456 15.0202 12.2259 11.3233 15.7508C7.62643 19.2758 5.54953 24.0566 5.54953 29.0417C5.54953 34.0267 7.62643 38.8076 11.3233 42.3325L43 72.5358L74.6767 42.3325C76.5077 40.5874 77.9602 38.5155 78.9513 36.235C79.9423 33.9545 80.4524 31.5102 80.4524 29.0417C80.4524 26.5732 79.9423 24.1289 78.9513 21.8484C77.9602 19.5679 76.5077 17.4959 74.6767 15.7508Z" stroke="#1E1E1E" stroke-width="4" stroke-linecap="round" stroke-linejoin="round"/>
</svg>
