<svg width="84" height="82" viewBox="0 0 84 82" fill="none" xmlns="http://www.w3.org/2000/svg">
<path d="M36.015 13.1884L6.37001 61.5C5.7588 62.5333 5.4354 63.7048 5.43197 64.898C5.42855 66.0911 5.74523 67.2644 6.3505 68.301C6.95578 69.3376 7.82855 70.2014 8.88199 70.8065C9.93543 71.4116 11.1328 71.7369 12.355 71.75H71.645C72.8672 71.7369 74.0646 71.4116 75.118 70.8065C76.1715 70.2014 77.0442 69.3376 77.6495 68.301C78.2548 67.2644 78.5715 66.0911 78.5681 64.898C78.5646 63.7048 78.2412 62.5333 77.63 61.5L47.985 13.1884C47.3611 12.1842 46.4825 11.354 45.4342 10.7778C44.3859 10.2017 43.2031 9.89899 42 9.89899C40.7969 9.89899 39.6142 10.2017 38.5658 10.7778C37.5175 11.354 36.639 12.1842 36.015 13.1884Z" stroke="#00D2DF" stroke-width="4" stroke-linecap="round" stroke-linejoin="round"/>
</svg>
